<svg viewBox="0 0 211 211" xmlns="http://www.w3.org/2000/svg" xmlns:xlink="http://www.w3.org/1999/xlink"><defs><path id="path-1" d="M0 .527h154.013v152.215H0z"/><path id="path-3" d="M.19.64h77.836v35.92H.19z"/></defs><g fill="none" fill-rule="evenodd"><path d="M142.542 94.427c7.569 0 13.686-6.13 13.686-13.678 0-7.559-6.117-13.688-13.686-13.688-7.558 0-13.686 6.13-13.686 13.688 0 7.549 6.128 13.678 13.686 13.678M67.46 94.427c7.558 0 13.685-6.13 13.685-13.678 0-7.559-6.127-13.688-13.685-13.688-7.558 0-13.686 6.13-13.686 13.688 0 7.549 6.128 13.678 13.686 13.678" fill="#FEFEFE"/><g transform="translate(28 6)"><mask id="mask-2" fill="#fff"><use xlink:href="#path-1"/></mask><path d="M117.503 142.484H36.506c-7.73-12.086-14.083-24-18.62-34.893 6.203 4.086 13.6 6.484 21.577 6.484 10.192 0 19.384-3.967 26.382-10.322l6.87 9.473.441.602c1.838 2.527 5.601 2.527 7.44 0l.43-.602 6.988-9.602c6.998 6.44 16.266 10.451 26.533 10.451 7.977 0 15.373-2.398 21.576-6.484-4.536 10.882-10.89 22.807-18.62 34.893m-40.498-131.7c18.878 0 35.886 7.861 48.024 20.442l-19.47 5.215c-.183.054-.312.172-.484.247-13.492 3.344-24.114 13.613-28.07 26.86-3.957-13.236-14.578-23.505-28.07-26.86-.173-.075-.302-.193-.484-.247l-19.46-5.215c12.138-12.58 29.146-20.441 48.014-20.441m8.45 63.957c0-16.054 13.02-29.075 29.092-29.075 15.835 0 28.672 12.677 29.027 28.419.01.301.032.58.043.882-.13 15.946-13.084 28.85-29.07 28.85-16.073 0-29.092-13.012-29.092-29.076m-8.45 11.204c1.01 3.387 2.386 6.602 4.225 9.549l-3.645 5.021a.876.876 0 0 1-1.408 0l-3.505-4.839c1.892-2.978 3.3-6.268 4.333-9.73M10.447 74.031c.376-15.72 13.19-28.365 29.016-28.365 16.062 0 29.092 13.021 29.092 29.075 0 16.064-13.03 29.075-29.092 29.075-15.986 0-28.941-12.892-29.07-28.839.01-.311.032-.623.054-.946m143.437.936c0-.086.021-.15.021-.226 0-.226-.064-.43-.075-.656-.58-13.516-4.634-26.097-11.32-36.925l7.697-2.053a5.128 5.128 0 0 0 3.612-6.29 5.113 5.113 0 0 0-6.278-3.624l-11.375 3.043C122.04 11.312 100.796.527 77.005.527c-23.781 0-45.035 10.785-59.162 27.71L6.458 25.194c-2.73-.742-5.547.892-6.278 3.623a5.135 5.135 0 0 0 3.623 6.29l7.708 2.065C4.835 47.968.78 60.527.169 74.022c0 .247-.065.473-.065.72 0 .086.022.161.022.247-.022.839-.13 1.656-.13 2.506 0 16.817 9.43 40.44 24.405 64.989H5.125a5.128 5.128 0 0 0-5.128 5.129c0 2.828 2.3 5.129 5.128 5.129h143.76a5.128 5.128 0 0 0 5.128-5.13c0-2.827-2.301-5.128-5.128-5.128h-19.277c14.976-24.549 24.405-48.172 24.405-64.99 0-.86-.108-1.688-.13-2.526" fill="#FEFEFE" mask="url(#mask-2)"/></g><g transform="translate(65.628 168.366)"><mask id="mask-4" fill="#fff"><use xlink:href="#path-3"/></mask><path d="M52.772 15.285c-6.654 7.01-12.105 11.01-13.664 11.01-1.559 0-7.01-4-13.664-11.01-3.924-4.14-8.15-9.118-12.417-14.645H.19c6.042 8.3 12.18 15.774 17.814 21.71 8.676 9.14 15.578 14.215 21.104 14.215s12.428-5.076 21.104-14.216C65.845 16.414 71.984 8.941 78.026.64H65.19c-4.268 5.528-8.494 10.506-12.418 14.646" fill="#FEFEFE" mask="url(#mask-4)"/></g></g></svg>